<svg width="34" height="9" viewBox="0 0 34 9" fill="none" xmlns="http://www.w3.org/2000/svg">
<path d="M24.0531 9.00001V0.600006H25.3251L29.1531 5.34001H28.6971L32.5251 0.600006H33.7971V9.00001H32.5011V5.43601C32.5011 4.77201 32.5171 4.14801 32.5491 3.56401C32.5811 2.98001 32.6451 2.38401 32.7411 1.77601L32.8731 2.26801L29.3211 6.58801H28.5291L24.9771 2.26801L25.1091 1.77601C25.2051 2.38401 25.2691 2.98001 25.3011 3.56401C25.3331 4.14801 25.3491 4.77201 25.3491 5.43601V9.00001H24.0531Z" fill="black"/>
<path d="M11.0669 9.00001L15.1709 0.600006H16.6829L20.7629 9.00001H19.3349L16.5149 3.21601C16.4429 3.06401 16.3709 2.91601 16.2989 2.77201C16.2269 2.62801 16.1549 2.48401 16.0829 2.34001C16.0189 2.19601 15.9549 2.04401 15.8909 1.88401C15.8269 1.72401 15.7629 1.54801 15.6989 1.35601L16.0829 1.34401C16.0109 1.53601 15.9389 1.71601 15.8669 1.88401C15.8029 2.05201 15.7349 2.21201 15.6629 2.36401C15.5909 2.51601 15.5189 2.66801 15.4469 2.82001C15.3749 2.96401 15.3029 3.11201 15.2309 3.26401L12.4349 9.00001H11.0669ZM12.8549 7.03201L13.3709 5.78401H18.3509L18.5549 7.03201H12.8549Z" fill="black"/>
<path d="M0.205475 9.00001V0.600006H4.78947C5.49347 0.600006 6.08148 0.684006 6.55348 0.852006C7.02548 1.01201 7.38148 1.24801 7.62148 1.56001C7.86148 1.87201 7.98148 2.25601 7.98148 2.71201C7.98148 3.15201 7.83348 3.53601 7.53748 3.86401C7.24148 4.18401 6.80948 4.41201 6.24148 4.54801L6.32548 4.32001C6.68548 4.40001 7.02548 4.52801 7.34548 4.70401C7.66548 4.88001 7.92548 5.12001 8.12548 5.42401C8.32548 5.72001 8.42548 6.08801 8.42548 6.52801C8.42548 7.01601 8.32548 7.42001 8.12548 7.74001C7.93348 8.06001 7.67348 8.31201 7.34548 8.49601C7.02548 8.68001 6.66948 8.81201 6.27748 8.89201C5.88548 8.96401 5.49347 9.00001 5.10147 9.00001H0.205475ZM1.50148 7.75201H5.14948C5.53347 7.75201 5.86948 7.70801 6.15748 7.62001C6.45348 7.53201 6.68548 7.39601 6.85348 7.21201C7.02148 7.02001 7.10548 6.78401 7.10548 6.50401C7.10548 6.18401 7.00148 5.93601 6.79348 5.76001C6.58548 5.58401 6.32548 5.46001 6.01348 5.38801C5.70148 5.30801 5.39348 5.26801 5.08948 5.26801H1.50148V7.75201ZM1.50148 4.00801H5.02948C5.31747 4.00801 5.58547 3.96401 5.83348 3.87601C6.08148 3.78801 6.27748 3.66001 6.42148 3.49201C6.57348 3.32401 6.64948 3.12801 6.64948 2.90401C6.64948 2.52001 6.47748 2.24801 6.13348 2.08801C5.79747 1.92801 5.38147 1.84801 4.88548 1.84801H1.50148V4.00801Z" fill="black"/>
</svg>
